<?xml version="1.0" standalone="no"?>
<!DOCTYPE svg PUBLIC "-//W3C//DTD SVG 20010904//EN"
 "http://www.w3.org/TR/2001/REC-SVG-20010904/DTD/svg10.dtd">
<svg version="1.0" xmlns="http://www.w3.org/2000/svg"
 width="512.000000pt" height="512.000000pt" viewBox="0 0 512.000000 512.000000"
 preserveAspectRatio="xMidYMid meet">
<metadata>
Created by potrace 1.14, written by Peter Selinger 2001-2017
</metadata>
<g transform="translate(0.000000,512.000000) scale(0.100000,-0.100000)"
fill="#000000" stroke="none">
<path d="M2499 4639 c-39 -10 -72 -30 -97 -58 -19 -21 -181 -297 -290 -491
-13 -25 -48 -85 -77 -135 -29 -49 -62 -107 -74 -128 -12 -21 -130 -228 -263
-460 -133 -232 -249 -437 -260 -454 -10 -18 -26 -48 -37 -65 -10 -18 -87 -152
-170 -298 -83 -146 -155 -272 -160 -280 -92 -151 -574 -1006 -581 -1030 -27
-95 28 -207 124 -251 40 -18 109 -19 1941 -19 1309 0 1912 3 1938 11 55 15
113 71 135 132 35 93 28 113 -135 397 -142 247 -716 1244 -998 1735 -76 132
-146 254 -155 270 -10 17 -59 102 -110 190 -50 88 -102 178 -115 200 -63 113
-221 385 -242 417 -12 21 -23 40 -23 43 0 2 -17 33 -38 67 -20 35 -44 75 -51
91 -48 93 -161 144 -262 116z m91 -159 c10 -5 69 -101 133 -212 104 -183 364
-643 439 -775 l29 -53 -631 0 -632 0 25 43 c13 23 144 254 291 513 281 497
293 513 346 484z m783 -1347 c47 -82 127 -220 178 -308 51 -88 109 -189 129
-225 20 -36 75 -131 123 -212 l85 -148 -1328 0 -1329 0 83 143 c45 78 163 282
260 452 98 171 187 322 197 337 10 15 19 29 19 32 0 3 9 21 21 40 l21 36 728
0 728 0 85 -147z m653 -1140 c27 -47 58 -102 69 -122 11 -20 30 -52 41 -71 12
-19 94 -162 184 -318 169 -296 177 -317 130 -342 -27 -14 -3753 -14 -3781 0
-26 14 -34 54 -17 87 15 28 182 318 384 666 l109 187 1416 0 1415 0 50 -87z"/>
<path d="M2497 4117 c-31 -56 -110 -194 -175 -307 l-119 -205 175 -3 c96 -1
177 -1 179 1 2 2 2 142 1 310 l-3 305 -58 -101z"/>
<path d="M1923 3108 c-9 -11 -73 -120 -145 -248 -29 -49 -111 -191 -125 -215
-7 -11 -16 -27 -20 -35 -4 -8 -33 -59 -65 -112 l-57 -98 524 0 525 0 0 360 0
360 -314 0 c-239 0 -316 -3 -323 -12z"/>
<path d="M1205 1873 c-15 -27 -39 -68 -53 -93 -42 -74 -223 -392 -248 -435
-13 -22 -24 -43 -24 -47 0 -5 378 -8 840 -8 l840 0 0 315 0 315 -664 0 -664 0
-27 -47z"/>
<path d="M790 4360 l0 -80 265 0 265 0 166 -166 c91 -91 169 -164 174 -162 11
4 96 84 105 98 4 7 -67 85 -181 201 l-189 189 -302 0 -303 0 0 -80z"/>
<path d="M4340 3652 c-27 -9 -479 -472 -474 -484 4 -7 29 -33 56 -57 l49 -45
215 215 214 214 308 1 c169 1 310 2 315 3 4 0 7 36 7 79 l0 78 -338 0 c-186 0
-344 -2 -352 -4z"/>
<path d="M560 720 l0 -80 1960 0 1960 0 0 80 0 80 -1960 0 -1960 0 0 -80z"/>
</g>
</svg>
